<?xml version="1.0" encoding="UTF-8" standalone="no"?>
<!-- Created with Inkscape (http://www.inkscape.org/) -->

<svg
   version="1.1"
   id="svg48"
   width="1200"
   height="1200"
   viewBox="0 0 1200 1200"
   sodipodi:docname="kagube_tear.svg"
   inkscape:version="1.3.2 (1:1.3.2+202311252150+091e20ef0f)"
   xmlns:inkscape="http://www.inkscape.org/namespaces/inkscape"
   xmlns:sodipodi="http://sodipodi.sourceforge.net/DTD/sodipodi-0.dtd"
   xmlns="http://www.w3.org/2000/svg"
   xmlns:svg="http://www.w3.org/2000/svg">
  <defs
     id="defs52" />
  <sodipodi:namedview
     id="namedview50"
     pagecolor="#ffffff"
     bordercolor="#666666"
     borderopacity="1.0"
     inkscape:showpageshadow="2"
     inkscape:pageopacity="0.0"
     inkscape:pagecheckerboard="0"
     inkscape:deskcolor="#d1d1d1"
     showgrid="false"
     inkscape:zoom="1.2896528"
     inkscape:cx="758.34364"
     inkscape:cy="617.99579"
     inkscape:window-width="3840"
     inkscape:window-height="2132"
     inkscape:window-x="1920"
     inkscape:window-y="0"
     inkscape:window-maximized="1"
     inkscape:current-layer="g54" />
  <g
     inkscape:groupmode="layer"
     inkscape:label="Image"
     id="g54">
    <path
       style="fill:#fcfcfd;stroke-width:4"
       d="m 920.55943,454.55729 c 38.90768,-20.11996 39.01256,-77.84389 0.1792,-98.60798 -37.57364,-20.09049 -80.0842,5.94228 -80.04744,49.01974 0.036,41.90588 43.06352,68.62072 79.86832,49.58824 z"
       id="path1" />
    <path
       style="fill:#000000;fill-opacity:1;stroke-width:4"
       d="M 0.67614525,600.49693 V 0.49693464 H 600.67615 1200.6761 V 600.49693 1200.4969 H 600.67615 0.67614525 Z M 262.44933,1047.6069 c 5.24394,-7.4868 6.22682,-25.1298 6.22682,-111.77317 0,-126.082 -6.97702,-115.3368 74.89002,-115.3368 79.38266,0 73.10998,-10.08612 73.10998,117.55688 0,90.78679 0.74236,102.46639 7,110.13349 6.70296,8.2128 9.71112,8.5286 70.88684,7.4432 63.63596,-1.1292 63.90664,-1.1729 68.94104,-11.1336 3.98212,-7.8789 5.06671,-105.61449 5.11316,-460.77693 l 0.059,-450.77693 c 0,0 0.69286,-12.30097 -2.49987,-16.01756 -3.19272,-3.71659 -16.27701,-5.81196 -16.27701,-5.81196 l -34.0418,4.76221 c -18.723,2.61921 -44.19432,7.4066 -56.60296,10.63864 -180.8099,47.095 -315.99786,208.52087 -338.39962,404.0778 -2.36124,20.61248 -4.127,136.467 -4.14584,272.01472 -0.0288,207.25951 0.72804,237.19621 6.194,245.00001 5.99028,8.5523 8.64064,8.89 69.77318,8.89 61.13254,0 63.7829,-0.3376 69.77318,-8.89 z m 434.4245,2.6146 c 165.83252,-31.4579 303.52767,-164.48573 349.57367,-337.72457 16.0401,-60.34752 18.0857,-99.66252 18.1593,-349 0.068,-229.71444 -0.1106,-235.17994 -7.9307,-243 -7.7975,-7.79748 -13.291,-7.99845 -216.99995,-7.93875 -114.95,0.0336 -210.98052,1.38369 -213.4012,3 -12.89848,8.61257 -13.59872,20.69727 -13.53984,233.67579 0.0452,163.77748 1.23164,215.58336 5.11264,223.26296 l 5.05364,10 100.28244,2 c 76.78516,1.53136 101.83004,3.28632 106.88736,7.48976 16.30576,13.55276 -1.44984,81.98048 -33.837,130.40328 -33.3478,49.85912 -85.74532,85.41824 -139.55804,94.70988 -18.7592,3.23904 -28.55928,7.24572 -35.1898,14.38692 -9.153,9.85792 -9.18504,10.30212 -8,110.84768 0.923,78.31155 2.42092,102.43155 6.67956,107.55625 7.07268,8.511 32.99616,8.6228 76.70792,0.3308 z M 869.75491,454.56657 c -38.79916,-16.86708 -38.4194,-81.13318 0.5888,-99.64379 38.05004,-18.05593 79.66576,8.86301 79.66576,51.53147 0,40.36108 -41.22908,65.0778 -80.25456,48.11232 z"
       id="path896"
       sodipodi:nodetypes="cccccccccssssssssczcsssssssssssssssscssssssssssss" />
    <text
       xml:space="preserve"
       style="font-style:normal;font-weight:normal;font-size:192px;line-height:1.25;font-family:sans-serif;fill:#000000;fill-opacity:1;stroke:none"
       x="938.81702"
       y="594.86621"
       id="text1010"><tspan
         sodipodi:role="line"
         id="tspan1008"
         x="938.81702"
         y="594.86621"
         style="font-size:192px" /></text>
    <path
       style="stroke:#000000;stroke-width:1px;fill:#000000"
       d="m 948.21875,515.76367 c 0,0 -11.59098,42.75806 -16.74805,62.76172 -7.60792,29.51024 15.2009,37.59784 24.61328,37.25 9.20629,-0.34022 33.88805,-7.99249 17.20313,-46.92578 -16.68493,-38.9333 -25.06836,-53.08594 -25.06836,-53.08594 z"
       id="path3" />
  </g>
</svg>
